<?xml version="1.0" encoding="UTF-8"?>
<svg version="1.1" xmlns="http://www.w3.org/2000/svg" width="128" height="128">
<path d="M0 0 C0.69512695 -0.0038269 1.39025391 -0.00765381 2.10644531 -0.01159668 C3.57228041 -0.0143118 5.03816428 -0.00697835 6.50390625 0.00976562 C8.74328975 0.03118581 10.97946587 0.00995557 13.21875 -0.015625 C14.64584039 -0.01298165 16.07292879 -0.0078565 17.5 0 C19.44132812 0.00676758 19.44132812 0.00676758 21.421875 0.01367188 C24.75 0.53125 24.75 0.53125 27.16992188 2.11132812 C29.34170852 5.43746366 29.26745575 7.8242722 29.28125 11.78125 C29.28699036 12.82394043 29.28699036 12.82394043 29.29284668 13.88769531 C29.2955618 15.35353041 29.28822835 16.81941428 29.27148438 18.28515625 C29.25006419 20.52453975 29.27129443 22.76071587 29.296875 25 C29.29423165 26.42709039 29.2891065 27.85417879 29.28125 29.28125 C29.27673828 30.57546875 29.27222656 31.8696875 29.26757812 33.203125 C28.75 36.53125 28.75 36.53125 26.90527344 38.95996094 C22.73999764 41.99663006 17.69730142 40.74635006 12.75 40.53125 C12.75 44.49125 12.75 48.45125 12.75 52.53125 C13.80501709 52.52601318 14.86003418 52.52077637 15.94702148 52.51538086 C19.8475663 52.49733099 23.7481074 52.48581805 27.64868164 52.47631836 C29.33944316 52.4712781 31.03020029 52.46444595 32.72094727 52.45581055 C35.14600707 52.44373143 37.57100944 52.43801877 39.99609375 52.43359375 C41.13672523 52.42585182 41.13672523 52.42585182 42.30039978 52.41795349 C44.1173257 52.41775762 45.93413127 52.46927723 47.75 52.53125 C48.75 53.53125 48.75 53.53125 48.86352539 55.38891602 C48.85567017 56.57505493 48.85567017 56.57505493 48.84765625 57.78515625 C48.84282227 59.06616211 48.84282227 59.06616211 48.83789062 60.37304688 C48.82532227 61.71979492 48.82532227 61.71979492 48.8125 63.09375 C48.80798828 63.99544922 48.80347656 64.89714844 48.79882812 65.82617188 C48.78700225 68.06126314 48.7705222 70.29622437 48.75 72.53125 C49.56984375 72.48484375 50.3896875 72.4384375 51.234375 72.390625 C52.31203125 72.35453125 53.3896875 72.3184375 54.5 72.28125 C55.56734375 72.23484375 56.6346875 72.1884375 57.734375 72.140625 C60.75 72.53125 60.75 72.53125 62.90527344 74.10253906 C65.42389886 77.41848476 65.26682851 79.64434227 65.28125 83.78125 C65.28699036 84.82394043 65.28699036 84.82394043 65.29284668 85.88769531 C65.2955618 87.35353041 65.28822835 88.81941428 65.27148438 90.28515625 C65.25006419 92.52453975 65.27129443 94.76071587 65.296875 97 C65.29423165 98.42709039 65.2891065 99.85417879 65.28125 101.28125 C65.27673828 102.57546875 65.27222656 103.8696875 65.26757812 105.203125 C64.75 108.53125 64.75 108.53125 63.16992188 110.95117188 C59.84378634 113.12295852 57.4569778 113.04870575 53.5 113.0625 C52.45730957 113.06824036 52.45730957 113.06824036 51.39355469 113.07409668 C49.92771959 113.0768118 48.46183572 113.06947835 46.99609375 113.05273438 C44.75671025 113.03131419 42.52053413 113.05254443 40.28125 113.078125 C38.85415961 113.07548165 37.42707121 113.0703565 36 113.0625 C34.70578125 113.05798828 33.4115625 113.05347656 32.078125 113.04882812 C28.75 112.53125 28.75 112.53125 26.33007812 110.95117188 C24.15829148 107.62503634 24.23254425 105.2382278 24.21875 101.28125 C24.21300964 100.23855957 24.21300964 100.23855957 24.20715332 99.17480469 C24.2044382 97.70896959 24.21177165 96.24308572 24.22851562 94.77734375 C24.24993581 92.53796025 24.22870557 90.30178413 24.203125 88.0625 C24.20576835 86.63540961 24.2108935 85.20832121 24.21875 83.78125 C24.22326172 82.48703125 24.22777344 81.1928125 24.23242188 79.859375 C24.75 76.53125 24.75 76.53125 26.59472656 74.10253906 C30.76000236 71.06586994 35.80269858 72.31614994 40.75 72.53125 C40.75 68.57125 40.75 64.61125 40.75 60.53125 C19.63 60.53125 -1.49 60.53125 -23.25 60.53125 C-23.25 64.49125 -23.25 68.45125 -23.25 72.53125 C-21.3525 72.44875 -19.455 72.36625 -17.5 72.28125 C-11.92537104 72.03887483 -11.92537104 72.03887483 -9.09472656 74.10253906 C-6.57610114 77.41848476 -6.73317149 79.64434227 -6.71875 83.78125 C-6.7149231 84.47637695 -6.71109619 85.17150391 -6.70715332 85.88769531 C-6.7044382 87.35353041 -6.71177165 88.81941428 -6.72851562 90.28515625 C-6.74993581 92.52453975 -6.72870557 94.76071587 -6.703125 97 C-6.70576835 98.42709039 -6.7108935 99.85417879 -6.71875 101.28125 C-6.72326172 102.57546875 -6.72777344 103.8696875 -6.73242188 105.203125 C-7.25 108.53125 -7.25 108.53125 -8.83007812 110.95117188 C-12.15621366 113.12295852 -14.5430222 113.04870575 -18.5 113.0625 C-19.54269043 113.06824036 -19.54269043 113.06824036 -20.60644531 113.07409668 C-22.07228041 113.0768118 -23.53816428 113.06947835 -25.00390625 113.05273438 C-27.24328975 113.03131419 -29.47946587 113.05254443 -31.71875 113.078125 C-33.14584039 113.07548165 -34.57292879 113.0703565 -36 113.0625 C-37.29421875 113.05798828 -38.5884375 113.05347656 -39.921875 113.04882812 C-43.25 112.53125 -43.25 112.53125 -45.66992188 110.95117188 C-47.84170852 107.62503634 -47.76745575 105.2382278 -47.78125 101.28125 C-47.7850769 100.58612305 -47.78890381 99.89099609 -47.79284668 99.17480469 C-47.7955618 97.70896959 -47.78822835 96.24308572 -47.77148438 94.77734375 C-47.75006419 92.53796025 -47.77129443 90.30178413 -47.796875 88.0625 C-47.79423165 86.63540961 -47.7891065 85.20832121 -47.78125 83.78125 C-47.77673828 82.48703125 -47.77222656 81.1928125 -47.76757812 79.859375 C-47.25 76.53125 -47.25 76.53125 -45.40527344 74.10253906 C-42.48897955 71.97643264 -40.56646625 72.12618625 -37 72.28125 C-35.92234375 72.31734375 -34.8446875 72.3534375 -33.734375 72.390625 C-32.91453125 72.43703125 -32.0946875 72.4834375 -31.25 72.53125 C-31.25523682 71.96092041 -31.26047363 71.39059082 -31.26586914 70.80297852 C-31.28658221 68.23324677 -31.2996419 65.66353253 -31.3125 63.09375 C-31.32087891 62.19591797 -31.32925781 61.29808594 -31.33789062 60.37304688 C-31.34111328 59.51904297 -31.34433594 58.66503906 -31.34765625 57.78515625 C-31.35289307 56.99439697 -31.35812988 56.2036377 -31.36352539 55.38891602 C-31.25 53.53125 -31.25 53.53125 -30.25 52.53125 C-27.65640678 52.44273471 -25.08960309 52.41599055 -22.49609375 52.43359375 C-21.72064713 52.4350087 -20.9452005 52.43642365 -20.14625549 52.43788147 C-17.65996506 52.44349655 -15.1737634 52.45605154 -12.6875 52.46875 C-11.00586067 52.47376306 -9.32421994 52.4783263 -7.64257812 52.48242188 C-3.51168434 52.49347087 0.61914276 52.51074555 4.75 52.53125 C4.75 48.57125 4.75 44.61125 4.75 40.53125 C2.8525 40.61375 0.955 40.69625 -1 40.78125 C-6.57462896 41.02362517 -6.57462896 41.02362517 -9.40527344 38.95996094 C-11.92389886 35.64401524 -11.76682851 33.41815773 -11.78125 29.28125 C-11.7850769 28.58612305 -11.78890381 27.89099609 -11.79284668 27.17480469 C-11.7955618 25.70896959 -11.78822835 24.24308572 -11.77148438 22.77734375 C-11.75006419 20.53796025 -11.77129443 18.30178413 -11.796875 16.0625 C-11.79423165 14.63540961 -11.7891065 13.20832121 -11.78125 11.78125 C-11.77673828 10.48703125 -11.77222656 9.1928125 -11.76757812 7.859375 C-11.25 4.53125 -11.25 4.53125 -9.66992188 2.11132812 C-6.34378634 -0.06045852 -3.9569778 0.01379425 0 0 Z M-3.25 8.53125 C-3.25 16.45125 -3.25 24.37125 -3.25 32.53125 C4.67 32.53125 12.59 32.53125 20.75 32.53125 C20.75 24.61125 20.75 16.69125 20.75 8.53125 C12.83 8.53125 4.91 8.53125 -3.25 8.53125 Z M-39.25 80.53125 C-39.25 88.45125 -39.25 96.37125 -39.25 104.53125 C-31.33 104.53125 -23.41 104.53125 -15.25 104.53125 C-15.25 96.61125 -15.25 88.69125 -15.25 80.53125 C-23.17 80.53125 -31.09 80.53125 -39.25 80.53125 Z M32.75 80.53125 C32.75 88.45125 32.75 96.37125 32.75 104.53125 C40.67 104.53125 48.59 104.53125 56.75 104.53125 C56.75 96.61125 56.75 88.69125 56.75 80.53125 C48.83 80.53125 40.91 80.53125 32.75 80.53125 Z " fill="#000000" transform="translate(55.25,7.46875)"/>
</svg>
